<?xml version="1.0" standalone="no"?>
<!DOCTYPE svg PUBLIC "-//W3C//DTD SVG 20010904//EN"
 "http://www.w3.org/TR/2001/REC-SVG-20010904/DTD/svg10.dtd">
<svg version="1.0" xmlns="http://www.w3.org/2000/svg"
 width="512.000000pt" height="512.000000pt" viewBox="0 0 512.000000 512.000000"
 preserveAspectRatio="xMidYMid meet">

<g transform="translate(0.000000,512.000000) scale(0.100000,-0.100000)"
fill="#000000" stroke="none">
<path d="M1750 4686 c-141 -83 -178 -109 -192 -137 -16 -31 -18 -79 -18 -566
l0 -531 -127 -42 c-512 -168 -896 -438 -1079 -758 -25 -42 -59 -120 -77 -172
l-32 -95 -3 -385 c-3 -352 -2 -394 16 -482 117 -572 860 -1036 1867 -1165 197
-25 708 -25 915 0 680 83 1253 323 1580 663 138 143 225 291 272 459 20 75 22
105 26 460 3 359 2 385 -18 472 -98 425 -541 796 -1201 1009 l-87 27 -4 151
c-3 145 -5 154 -35 218 -61 130 0 91 -1262 815 -243 139 -290 163 -325 163
-34 -1 -72 -19 -216 -104z m431 -457 l69 -41 0 -83 0 -83 82 -48 c46 -26 88
-47 94 -47 6 0 38 16 71 36 33 21 65 37 71 37 6 0 42 -18 81 -41 l70 -40 3
-86 3 -85 113 -65 112 -65 0 -336 c0 -186 -3 -509 -7 -720 l-6 -382 -54 -31
-53 -31 -550 318 -550 318 0 716 0 715 57 34 57 35 59 -33 60 -32 66 40 c36
21 70 39 74 40 5 1 40 -18 78 -40z"/>
<path d="M1876 3752 c-3 -5 0 -16 7 -24 14 -17 791 -468 806 -468 6 0 11 4 11
8 0 19 -31 42 -130 99 -58 33 -226 130 -375 215 -326 187 -313 180 -319 170z"/>
<path d="M1870 3468 c0 -8 8 -22 18 -30 26 -22 769 -449 792 -455 25 -7 26 9
3 30 -18 15 -771 453 -799 464 -8 3 -14 -1 -14 -9z"/>
<path d="M1875 3190 c-3 -4 -3 -14 0 -22 7 -16 806 -478 817 -472 22 14 -30
52 -229 166 -120 69 -300 173 -400 231 -101 58 -185 102 -188 97z"/>
<path d="M1870 2904 c0 -5 4 -15 8 -22 8 -11 797 -472 809 -472 2 0 3 9 1 21
-2 15 -100 76 -393 246 -384 222 -425 244 -425 227z"/>
</g>
</svg>
